<svg width="400" height="300" viewBox="0 0 400 300" fill="none" xmlns="http://www.w3.org/2000/svg">
  <rect width="400" height="300" rx="12" fill="url(#gradient-bg)"/>
  
  <!-- Header -->
  <rect x="20" y="20" width="360" height="40" rx="8" fill="rgba(255,255,255,0.1)"/>
  <rect x="30" y="30" width="80" height="20" rx="4" fill="rgba(255,255,255,0.2)"/>
  <rect x="320" y="30" width="50" height="20" rx="4" fill="rgba(255,255,255,0.2)"/>
  
  <!-- Sidebar -->
  <rect x="20" y="80" width="100" height="200" rx="8" fill="rgba(255,255,255,0.05)"/>
  <rect x="30" y="100" width="80" height="8" rx="4" fill="rgba(255,255,255,0.1)"/>
  <rect x="30" y="120" width="80" height="8" rx="4" fill="rgba(255,255,255,0.1)"/>
  <rect x="30" y="140" width="80" height="8" rx="4" fill="rgba(255,255,255,0.1)"/>
  <rect x="30" y="160" width="80" height="8" rx="4" fill="rgba(255,255,255,0.1)"/>
  
  <!-- Main Content -->
  <rect x="140" y="80" width="240" height="80" rx="8" fill="rgba(255,255,255,0.05)"/>
  <rect x="150" y="100" width="100" height="8" rx="4" fill="rgba(255,255,255,0.1)"/>
  <rect x="150" y="120" width="80" height="8" rx="4" fill="rgba(255,255,255,0.1)"/>
  <rect x="150" y="140" width="120" height="8" rx="4" fill="rgba(255,255,255,0.1)"/>
  
  <!-- Chart Area -->
  <rect x="140" y="180" width="110" height="100" rx="8" fill="rgba(255,255,255,0.05)"/>
  <rect x="150" y="200" width="90" height="8" rx="4" fill="rgba(255,255,255,0.1)"/>
  <rect x="150" y="220" width="70" height="8" rx="4" fill="rgba(255,255,255,0.1)"/>
  <rect x="150" y="240" width="90" height="8" rx="4" fill="rgba(255,255,255,0.1)"/>
  <rect x="150" y="260" width="60" height="8" rx="4" fill="rgba(255,255,255,0.1)"/>
  
  <!-- Stats Area -->
  <rect x="270" y="180" width="110" height="100" rx="8" fill="rgba(255,255,255,0.05)"/>
  <rect x="280" y="200" width="90" height="8" rx="4" fill="rgba(255,255,255,0.1)"/>
  <rect x="280" y="220" width="70" height="8" rx="4" fill="rgba(255,255,255,0.1)"/>
  <rect x="280" y="240" width="90" height="8" rx="4" fill="rgba(255,255,255,0.1)"/>
  <rect x="280" y="260" width="60" height="8" rx="4" fill="rgba(255,255,255,0.1)"/>
  
  <!-- Floating Elements -->
  <circle cx="50" cy="50" r="3" fill="rgba(255,255,255,0.3)"/>
  <circle cx="350" cy="50" r="3" fill="rgba(255,255,255,0.3)"/>
  <circle cx="50" cy="250" r="3" fill="rgba(255,255,255,0.3)"/>
  <circle cx="350" cy="250" r="3" fill="rgba(255,255,255,0.3)"/>
  
  <defs>
    <linearGradient id="gradient-bg" x1="0%" y1="0%" x2="100%" y2="100%">
      <stop offset="0%" stop-color="#f8fafc"/>
      <stop offset="100%" stop-color="#e2e8f0"/>
    </linearGradient>
  </defs>
</svg>
