<svg width="400" height="300" viewBox="0 0 400 300" fill="none" xmlns="http://www.w3.org/2000/svg">
  <rect width="400" height="300" rx="12" fill="url(#gradient-bg)"/>
  
  <!-- Header -->
  <rect x="20" y="20" width="360" height="40" rx="8" fill="rgba(255,255,255,0.1)"/>
  <rect x="30" y="30" width="120" height="20" rx="4" fill="rgba(255,255,255,0.2)"/>
  
  <!-- Chart Container -->
  <rect x="20" y="80" width="360" height="180" rx="8" fill="rgba(255,255,255,0.05)"/>
  
  <!-- Chart Lines -->
  <path d="M40 220 L80 200 L120 180 L160 160 L200 140 L240 120 L280 100 L320 80 L360 60" 
        stroke="rgba(59, 130, 246, 0.8)" stroke-width="3" fill="none" stroke-linecap="round"/>
  
  <path d="M40 200 L80 190 L120 170 L160 150 L200 130 L240 110 L280 90 L320 70 L360 50" 
        stroke="rgba(16, 185, 129, 0.8)" stroke-width="3" fill="none" stroke-linecap="round"/>
  
  <!-- Chart Area Fill -->
  <path d="M40 220 L80 200 L120 180 L160 160 L200 140 L240 120 L280 100 L320 80 L360 60 L360 220 L40 220 Z" 
        fill="rgba(59, 130, 246, 0.1)"/>
  
  <!-- Y-axis labels -->
  <rect x="25" y="70" width="30" height="8" rx="4" fill="rgba(255,255,255,0.1)"/>
  <rect x="25" y="120" width="30" height="8" rx="4" fill="rgba(255,255,255,0.1)"/>
  <rect x="25" y="170" width="30" height="8" rx="4" fill="rgba(255,255,255,0.1)"/>
  <rect x="25" y="220" width="30" height="8" rx="4" fill="rgba(255,255,255,0.1)"/>
  
  <!-- X-axis labels -->
  <rect x="40" y="270" width="30" height="8" rx="4" fill="rgba(255,255,255,0.1)"/>
  <rect x="120" y="270" width="30" height="8" rx="4" fill="rgba(255,255,255,0.1)"/>
  <rect x="200" y="270" width="30" height="8" rx="4" fill="rgba(255,255,255,0.1)"/>
  <rect x="280" y="270" width="30" height="8" rx="4" fill="rgba(255,255,255,0.1)"/>
  <rect x="360" y="270" width="30" height="8" rx="4" fill="rgba(255,255,255,0.1)"/>
  
  <!-- Grid Lines -->
  <line x1="40" y1="70" x2="360" y2="70" stroke="rgba(255,255,255,0.1)" stroke-width="1"/>
  <line x1="40" y1="120" x2="360" y2="120" stroke="rgba(255,255,255,0.1)" stroke-width="1"/>
  <line x1="40" y1="170" x2="360" y2="170" stroke="rgba(255,255,255,0.1)" stroke-width="1"/>
  <line x1="40" y1="220" x2="360" y2="220" stroke="rgba(255,255,255,0.1)" stroke-width="1"/>
  
  <!-- Data Points -->
  <circle cx="40" cy="220" r="4" fill="rgba(59, 130, 246, 0.8)"/>
  <circle cx="80" cy="200" r="4" fill="rgba(59, 130, 246, 0.8)"/>
  <circle cx="120" cy="180" r="4" fill="rgba(59, 130, 246, 0.8)"/>
  <circle cx="160" cy="160" r="4" fill="rgba(59, 130, 246, 0.8)"/>
  <circle cx="200" cy="140" r="4" fill="rgba(59, 130, 246, 0.8)"/>
  <circle cx="240" cy="120" r="4" fill="rgba(59, 130, 246, 0.8)"/>
  <circle cx="280" cy="100" r="4" fill="rgba(59, 130, 246, 0.8)"/>
  <circle cx="320" cy="80" r="4" fill="rgba(59, 130, 246, 0.8)"/>
  <circle cx="360" cy="60" r="4" fill="rgba(59, 130, 246, 0.8)"/>
  
  <!-- Legend -->
  <rect x="20" y="280" width="360" height="20" rx="4" fill="rgba(255,255,255,0.05)"/>
  <circle cx="30" cy="290" r="3" fill="rgba(59, 130, 246, 0.8)"/>
  <rect x="40" y="285" width="40" height="8" rx="4" fill="rgba(255,255,255,0.1)"/>
  <circle cx="100" cy="290" r="3" fill="rgba(16, 185, 129, 0.8)"/>
  <rect x="110" y="285" width="40" height="8" rx="4" fill="rgba(255,255,255,0.1)"/>
  
  <defs>
    <linearGradient id="gradient-bg" x1="0%" y1="0%" x2="100%" y2="100%">
      <stop offset="0%" stop-color="#f8fafc"/>
      <stop offset="100%" stop-color="#e2e8f0"/>
    </linearGradient>
  </defs>
</svg>
